<?xml version="1.0" encoding="UTF-8"?>
<svg width="44px" height="26px" viewBox="0 0 44 26" version="1.1" xmlns="http://www.w3.org/2000/svg" xmlns:xlink="http://www.w3.org/1999/xlink">
    <!-- Generator: Sketch 51.2 (57519) - http://www.bohemiancoding.com/sketch -->
    <title>arena</title>
    <desc>Created with Sketch.</desc>
    <defs></defs>
    <g id="Page-1" stroke="none" stroke-width="1" fill="none" fill-rule="evenodd">
        <g id="Main-App" transform="translate(-14.000000, -38.000000)" fill="#6D6D6D" fill-rule="nonzero">
            <g id="arena" transform="translate(14.000000, 38.000000)">
                <path d="M43.5750729,18.2194302 L37.4755675,13.4322863 C37.1022299,13.1401023 37.1022299,12.660336 37.4755675,12.3672754 L43.5753655,7.58130022 C43.9498735,7.28853178 44.1064061,6.79386413 43.9235409,6.48268809 C43.7403831,6.1723886 43.2289457,6.06194302 42.7883137,6.23725347 L35.5351482,9.12227904 C35.0942237,9.29934259 34.6787539,9.05799854 34.6126299,8.58758218 L33.5218755,0.854930606 C33.4545811,0.384806428 33.1005541,0 32.7339459,0 C32.3690932,0 32.0153588,0.384806428 31.9498199,0.854638422 L30.8584804,8.58787436 C30.7917711,9.05829072 30.3768866,9.2990504 29.9353768,9.12257122 L22.8021709,6.28546384 C22.3597834,6.10956903 21.6391482,6.10956903 21.1979311,6.28546384 L14.0635548,9.12257122 C13.6223377,9.2990504 13.2068679,9.05829072 13.1407439,8.58787436 L12.0508673,0.854638422 C11.9835729,0.384806428 11.630131,0 11.2649858,0 C10.8986702,0 10.5443506,0.384806428 10.4785191,0.854638422 L9.38717956,8.58787436 C9.3210555,9.05829072 8.90587834,9.2990504 8.46466118,9.12257122 L1.2117883,6.23813002 C0.770863724,6.06194302 0.260304074,6.17297297 0.0771462855,6.48298028 C-0.105718919,6.7944485 0.0502285274,7.28940833 0.423566128,7.5815924 L6.52394934,12.3675676 C6.89757952,12.6606282 6.89757952,13.1403944 6.52394934,13.4328707 L0.423566128,18.2194302 C0.0490581901,18.5121987 -0.106011503,19.0363769 0.0765611168,19.3834916 C0.26001149,19.7311907 0.770571139,19.8708546 1.21091055,19.6943755 L8.3988297,16.8116874 C8.84063204,16.6355004 9.25142043,16.8753835 9.31315572,17.3457999 L10.3500746,25.1459459 C10.4126876,25.6154858 10.823476,26 11.2629377,26 C11.7018142,26 12.1128951,25.6157779 12.1758008,25.1459459 L13.2144751,17.3457999 C13.2759178,16.8753835 13.6884617,16.6357925 14.1279234,16.8116874 L21.1979311,19.6452885 C21.6385631,19.8223521 22.3594908,19.8223521 22.8004154,19.6452885 L29.8692528,16.8116874 C30.3092996,16.6355004 30.7206731,16.8753835 30.7835788,17.3457999 L31.8222531,25.1459459 C31.884281,25.6154858 32.295362,26 32.7336533,26 C33.173115,26 33.5841959,25.6157779 33.6465164,25.1459459 L34.6851908,17.3457999 C34.748389,16.8753835 35.1591774,16.6357925 35.5992242,16.8116874 L42.7880211,19.6943755 C43.2268976,19.8708546 43.7389202,19.7308985 43.922078,19.3837838 C44.1055283,19.0372535 43.9495809,18.5130752 43.5753655,18.2203068 L43.5750729,18.2194302 Z M28.0564003,13.4930606 L22.684552,17.6230825 C22.3085812,17.9123448 21.6918134,17.9123448 21.3170129,17.6230825 L15.9434091,13.4930606 C15.5677309,13.2037984 15.564805,12.7275383 15.9375575,12.4338934 L21.3211091,8.19926954 C21.6938615,7.90562454 22.3050702,7.90562454 22.6781152,8.19926954 L28.0616668,12.4338934 C28.435297,12.7272462 28.4323711,13.2035062 28.0558151,13.4933528 L28.0564003,13.4930606 Z" id="Shape"></path>
            </g>
        </g>
    </g>
</svg>